Patient4_TMGait_0pt8_01_left_18_EMG.mot
version=1
nRows=23
nColumns=33
inDegrees=no
endheader
time	1LAddLong	2LGlutMax	3LGlutMed	4LIliopsoas	5LSemiMemb	6LBicFemLong	7LRecFem	8LVastMed	9LVastLat	10LGasMed	11LTibAnt	12lTibPost	13LPeroneusLong	14LSol	15LExtDigLong	16LFlexDigLong	17RAddLong	18RGlutMax	19RGlutMed	20RIliopsoas	21RSemiMemb	22RBicFemLong	23RRecFem	24RVastMed	25RVastLat	26RGasMed	27RTibAnt	28RTibPost	29RPeroneusLong	30RSol	31RExtDigLong	32RFlexDigLong
19.41	-0.004578	-0.7045	-0.077515	0.00473	-0.016327	0.014801	0.098419	-0.00946	-0.44998	0.005188	0.068054	-0.006714	0.01709	-0.094757	0.59235	-0.00824	0.007477	-0.16342	-0.042877	-0.065155	-0.09201	-0.26611	-0.088501	0.030518	0.097504	-0.002289	-0.050964	-0.024719	-0.17197	0.041809	-0.000763	-0.002747
19.411	0.014648	-0.40512	-0.081024	-0.002747	-0.010834	0.00824	0.18555	-0.017853	-0.47119	-0.015869	0.11383	-0.004578	0.046692	-0.076447	0.24857	-0.007629	0.010681	0.002594	0.9021	-0.10223	0.11078	-0.23895	-0.087891	0.025177	0.077209	-0.015717	-0.046082	-0.02594	-0.11093	0.018921	-0.001678	0.005341
19.412	0.009155	-0.18188	-0.081177	0.005951	-0.009613	-0.003967	0.15381	-0.012512	-0.50842	-0.028992	0.027771	0.000763	0.10696	-0.019073	0.24216	-0.00473	-0.001984	0.076752	1.1345	-0.089111	0.058746	-0.06485	-0.076141	0.03006	0.02594	-0.027313	0.050354	-0.024719	-0.23193	-0.018921	-0.003662	-0.000153
19.413	0.008087	-0.06073	-0.084534	0.00412	-0.007477	-0.013885	0.20294	0.000153	-0.58884	0.003204	-0.090179	-0.005035	0.095215	-0.018768	-0.065613	0.001373	-0.033264	-0.004272	0.73379	-0.025177	-0.080719	0.062408	-0.041199	0.04364	0.010223	-0.049744	0.11307	-0.008087	-0.20905	0.001526	-0.00061	-0.004272
19.414	0.00473	0.10651	-0.081482	-0.001984	-0.007629	0	0.21744	-0.010834	-0.68054	0.055237	0.053406	0.000458	-0.0383	-0.067139	-0.074158	-0.009155	-0.03067	0.017548	0.044556	-0.002289	0.051117	0.075073	-0.11185	0.097046	0.071106	-0.040894	0.095825	-0.010071	-0.33966	0.20935	-0.002899	-0.00351
19.415	0.002747	0.30289	-0.056763	0.007172	-0.005035	-0.014343	0.25848	-0.001373	-0.73975	0.059052	0.14999	0.002899	-0.03067	-0.083466	-0.054321	-0.018311	-0.021362	0.091248	-0.17136	0.013733	0.022736	0.052948	-0.063477	0.080566	0.096893	0.037842	-0.007477	-0.016327	-0.32044	0.22522	0.000916	-0.013275
19.416	0.007172	0.49454	-0.081482	0.018463	0.003357	-0.02243	0.30029	0.005188	-0.7988	0.039215	0.046844	0.005035	0.020142	-0.08255	0.050354	-0.012817	-0.00412	0.2562	0.10498	-0.045929	-0.009155	0.034027	-0.070801	0.020294	0.050201	0.061798	-0.036163	-0.010986	-0.048218	0.12329	0.000763	-0.000153
19.417	0.014191	0.75119	-0.075073	0.022736	0.000153	-0.009308	0.36896	0.007477	-0.746	0.002441	-0.045471	0.003052	0.056915	-0.062103	0.013733	-0.010376	-0.004272	0.34775	-0.33249	0.023193	-0.054474	-0.018311	-0.11261	-0.017242	0.020294	0.019379	-0.084991	-0.001984	0.43411	0.20447	0.001526	-0.004578
19.418	0.033264	1.0327	-0.055237	0.018463	-0.007172	-0.020905	0.44525	-0.000763	-0.6424	0.022736	0.019684	0.008392	0.046692	-0.031433	-0.032959	-0.017395	-0.010071	0.46478	-0.38925	0.065155	-0.079803	-0.11597	-0.24429	-0.032043	0.046082	-0.015564	0.021362	-0.00946	0.31021	0.39108	0.005188	-0.007324
19.419	-0.018616	1.1998	-0.058594	0.011597	-0.038757	-0.057678	0.42831	0.01358	-0.53406	0.014954	0.058441	-0.005951	0.014801	-0.054474	-0.045319	-0.021362	-0.007019	0.53604	-0.32318	0.002441	-0.087738	0.033112	-0.21637	-0.014496	0.026855	-0.01709	0.13687	-0.034027	0.071564	0.44159	-0.001373	-0.013428
19.42	-0.013885	1.2468	-0.066833	0.005493	-0.005493	-0.096283	0.37857	0.009918	-0.40466	0.03006	-0.019531	-0.003204	0.015717	-0.075684	0.065918	-0.020599	-0.014496	0.56122	-0.41245	-0.089569	-0.084839	0.14267	-0.13626	-0.040283	0.023499	-0.014343	0.074158	-0.03418	-0.26977	0.19928	-0.001831	-0.006866
19.421	-0.001526	1.2518	-0.075684	0.000153	0.009613	-0.10086	0.28931	0.009308	-0.28671	0.021362	-0.054169	-0.00351	-0.036011	-0.059204	0.014954	-0.017395	-0.007629	0.62103	-0.44235	-0.17319	-0.11047	0.29007	-0.1857	0.005188	0.001831	-0.079346	0.11063	-0.0383	-0.07309	-0.21988	-0.006409	-0.010071
19.422	0.009155	1.2495	-0.066833	0.02243	-0.00061	-0.10529	0.25299	0.007324	-0.19531	0.006104	-0.080261	0.00061	0.001526	-0.014191	0.11475	-0.024109	-0.005798	0.71899	-0.15671	-0.085144	-0.086365	0.16357	-0.17746	-0.010681	0.10223	-0.017242	0.082855	-0.001984	-0.051422	-0.42419	0	-0.010834
19.423	-0.001526	1.1893	-0.04837	0.012054	-0.006409	-0.13718	0.22644	0.001678	-0.12466	-0.003815	-0.053101	0.000916	0.026855	-0.024109	0.20554	-0.027466	-0.004425	0.737	-0.017548	0.095215	-0.01358	-0.159	-0.16907	0.01709	0.13031	0.008087	-0.21606	0.040894	1.1528	-0.14084	0	0.001526
19.424	0.014343	1.1847	-0.037842	0.006104	-0.004425	-0.1387	0.22049	0.007629	-0.054779	0.002441	-0.03479	0.001068	0.039673	-0.011749	0.31189	-0.016937	0.004578	0.88272	-0.053406	0.16998	-0.007782	-0.086517	-0.12344	-0.061646	0.057068	-0.004425	-0.12405	0.023651	1.1005	0.26016	-0.001221	-0.000916
19.425	0.011292	1.1124	-0.084686	0.025482	-0.007019	-0.12466	0.21988	0.021515	0.013428	-0.001831	-0.007172	-0.002441	0.032806	0.019989	0.22537	-0.011139	0.018768	0.84259	-0.42877	0.2214	-0.012817	0.21576	-0.15091	-0.032806	0.046997	-0.094604	0.1265	-0.004578	-0.66681	0.27359	0.000305	0.001373
19.426	0.005646	1.1002	-0.058899	0.02243	-0.001373	-0.0914	0.19409	0.015106	0.043182	-0.009918	-0.009155	-0.001678	0.021515	0.043488	0.21042	-0.020142	0.043793	0.97611	-0.14358	0.20905	-0.1059	-0.25467	-0.090637	-0.053406	0.072327	-0.09201	0.042572	-0.00412	-0.29633	0.08194	-0.005188	-0.005798
19.427	0.013428	1.0983	-0.059509	-0.000916	-0.003357	-0.055695	0.090179	0.017548	0.067291	-0.011749	0.065155	0.019989	0.000153	0.00351	-0.085754	-0.001373	0.031433	1.0622	-0.003052	0.16159	0.054779	-0.56793	0.04425	-0.019073	0.10101	-0.11414	-0.003662	-0.016632	-0.17364	-0.044098	-0.001831	0.001221
19.428	0.005188	1.0442	-0.072021	-0.026093	-0.014343	-0.017395	0.044556	0.016632	0.076752	-0.017548	0.10971	0.024109	-0.003052	-0.020447	-0.11536	-0.000305	0.013123	1.0883	0.18021	0.084686	0.13336	-0.32257	0.20676	-0.061951	0.073395	-0.12054	-0.001831	-0.023651	0.47577	-0.12985	-0.009155	0.010071
19.429	-0.006866	0.98114	-0.051575	-0.00946	-0.007935	-0.025177	-0.010223	0.005951	0.10269	-0.011597	0.11215	0.00946	0.034637	-0.000458	-0.007172	0.001221	-0.001221	1.0291	0.36835	-0.034637	0.044098	-0.032654	0.34836	-0.1236	0.11063	-0.036011	0.047302	-0.026093	-0.20493	-0.29572	-0.002289	-0.003357
19.43	0.003204	0.92468	-0.053406	0.014954	-0.00885	-0.028687	-0.062866	0.010681	0.1329	-0.019073	0.02533	0.002136	0.069885	-0.004883	-0.040894	0.014038	0.00061	0.8989	0.60791	-0.088806	-0.23666	0.18051	0.49835	-0.16815	0.29282	-0.10422	-0.033264	-0.032501	-0.38589	-0.26947	-0.002747	-0.000153
19.431	0.003357	0.84946	-0.0383	0.030365	-0.015717	-0.035095	-0.16083	0.018768	0.14969	0.004425	-0.000153	-0.002747	0.035858	-0.018463	-0.10086	0.01297	0.00351	0.82092	0.66422	-0.085144	-0.24048	0.061188	0.45578	-0.23697	0.31281	0.002441	0.016479	-0.032806	0.61508	0.10773	-0.007477	0.003052
19.432	0.001373	0.80154	-0.049133	0.027771	-0.014038	-0.036163	-0.20523	0.018311	0.16251	-0.001678	0.007019	-0.002289	0.014343	-0.009613	-0.10666	0.018463	-0.014343	0.79071	0.2861	-0.042114	0.003967	0.13031	0.12207	-0.31693	0.077515	0.087891	0.13611	0.027618	-0.87524	-0.079346	-0.007935	-0.00061
